<?xml version="1.0" encoding="UTF-8" standalone="no"?>
<!DOCTYPE svg PUBLIC "-//W3C//DTD SVG 1.1//EN"
 "http://www.w3.org/Graphics/SVG/1.1/DTD/svg11.dtd">
<!-- Generated by graphviz version 10.0.1 (0)
 -->
<!-- Pages: 1 -->
<svg width="576pt" height="109pt"
 viewBox="0.00 0.00 576.00 108.52" xmlns="http://www.w3.org/2000/svg" xmlns:xlink="http://www.w3.org/1999/xlink">
<g id="graph0" class="graph" transform="scale(0.629121 0.629121) rotate(0) translate(4 168.5)">
<polygon fill="white" stroke="none" points="-4,4 -4,-168.5 911.56,-168.5 911.56,4 -4,4"/>
<g id="clust1" class="cluster">
<title>cluster_laptop</title>
<polygon fill="none" stroke="black" points="8,-49.5 8,-126.5 131.68,-126.5 131.68,-49.5 8,-49.5"/>
<text text-anchor="middle" x="69.84" y="-109.2" font-family="Times,serif" font-size="14.00">roly&#45;laptop&#45;21</text>
</g>
<g id="clust2" class="cluster">
<title>cluster_w11</title>
<polygon fill="none" stroke="black" points="372.78,-38.5 372.78,-156.5 899.56,-156.5 899.56,-38.5 372.78,-38.5"/>
<text text-anchor="middle" x="636.17" y="-139.2" font-family="Times,serif" font-size="14.00">roly&#45;desktop&#45;23</text>
</g>
<g id="clust3" class="cluster">
<title>cluster_wsl</title>
<polygon fill="none" stroke="black" points="763.68,-46.5 763.68,-123.5 891.56,-123.5 891.56,-46.5 763.68,-46.5"/>
<text text-anchor="middle" x="827.62" y="-106.2" font-family="Times,serif" font-size="14.00">wsl2</text>
</g>
<!-- terminal -->
<g id="node1" class="node">
<title>terminal</title>
<ellipse fill="none" stroke="black" cx="69.84" cy="-75.5" rx="53.84" ry="18"/>
<text text-anchor="middle" x="69.84" y="-70.82" font-family="Times,serif" font-size="14.00">terminal</text>
</g>
<!-- w11_sshd -->
<g id="node2" class="node">
<title>w11_sshd</title>
<ellipse fill="none" stroke="black" cx="440.93" cy="-104.5" rx="60.15" ry="18"/>
<text text-anchor="middle" x="440.93" y="-99.82" font-family="Times,serif" font-size="14.00">w11_sshd</text>
</g>
<!-- terminal&#45;&gt;w11_sshd -->
<g id="edge1" class="edge">
<title>terminal&#45;&gt;w11_sshd</title>
<path fill="none" stroke="black" d="M122.55,-79.56C187.42,-84.66 298.89,-93.42 370.98,-99.08"/>
<polygon fill="black" stroke="black" points="370.44,-102.55 380.68,-99.84 370.99,-95.57 370.44,-102.55"/>
<text text-anchor="middle" x="240.3" y="-99.45" font-family="Times,serif" font-size="14.00">ssh Rcony@roly&#45;desktop&#45;23</text>
</g>
<!-- wsl_sshd -->
<g id="node3" class="node">
<title>wsl_sshd</title>
<g id="a_node3"><a xlink:title="listens on port 2022 to avoid collision with windows sshd">
<ellipse fill="none" stroke="black" cx="827.62" cy="-72.5" rx="55.94" ry="18"/>
<text text-anchor="middle" x="827.62" y="-67.82" font-family="Times,serif" font-size="14.00">wsl_sshd</text>
</a>
</g>
</g>
<!-- terminal&#45;&gt;wsl_sshd -->
<g id="edge3" class="edge">
<title>terminal&#45;&gt;wsl_sshd</title>
<path fill="none" stroke="black" d="M110.14,-63.35C164.82,-47.13 267.26,-19.28 356.93,-9 532.93,11.19 581.96,-3.93 753.68,-47.5 762.07,-49.63 770.87,-52.27 779.35,-55.04"/>
<polygon fill="black" stroke="black" points="778.21,-58.35 788.81,-58.24 780.45,-51.72 778.21,-58.35"/>
<text text-anchor="middle" x="440.93" y="-30.7" font-family="Times,serif" font-size="14.00">ssh roly&#45;desktop&#45;23&#45;wsl</text>
<text text-anchor="middle" x="440.93" y="-13.45" font-family="Times,serif" font-size="14.00">(via ProxyJump)</text>
</g>
<!-- w11_sshd&#45;&gt;wsl_sshd -->
<g id="edge2" class="edge">
<title>w11_sshd&#45;&gt;wsl_sshd</title>
<path fill="none" stroke="black" d="M499.1,-99.74C569.24,-93.91 687.85,-84.04 761.45,-77.92"/>
<polygon fill="black" stroke="black" points="761.67,-81.41 771.35,-77.1 761.09,-74.44 761.67,-81.41"/>
<text text-anchor="middle" x="648.3" y="-99.45" font-family="Times,serif" font-size="14.00">ssh &#45;p 2022 roland@localhost</text>
</g>
</g>
</svg>
