<?xml version="1.0" encoding="UTF-8" standalone="no"?>
<!DOCTYPE svg PUBLIC "-//W3C//DTD SVG 1.1//EN"
 "http://www.w3.org/Graphics/SVG/1.1/DTD/svg11.dtd">
<!-- Generated by graphviz version 7.1.0 (0)
 -->
<!-- Pages: 1 -->
<svg width="576pt" height="104pt"
 viewBox="0.00 0.00 576.00 104.37" xmlns="http://www.w3.org/2000/svg" xmlns:xlink="http://www.w3.org/1999/xlink">
<g id="graph0" class="graph" transform="scale(0.638523 0.638523) rotate(0) translate(4 159.45)">
<polygon fill="white" stroke="none" points="-4,4 -4,-159.45 898.08,-159.45 898.08,4 -4,4"/>
<g id="clust1" class="cluster">
<title>cluster_laptop</title>
<polygon fill="none" stroke="black" points="8,-43.45 8,-118.45 124.09,-118.45 124.09,-43.45 8,-43.45"/>
<text text-anchor="middle" x="66.05" y="-103.25" font-family="Times,serif" font-size="14.00">roly&#45;laptop&#45;21</text>
</g>
<g id="clust2" class="cluster">
<title>cluster_w11</title>
<polygon fill="none" stroke="black" points="370.7,-33.45 370.7,-147.45 886.08,-147.45 886.08,-33.45 370.7,-33.45"/>
<text text-anchor="middle" x="628.39" y="-132.25" font-family="Times,serif" font-size="14.00">roly&#45;desktop&#45;23</text>
</g>
<g id="clust3" class="cluster">
<title>cluster_wsl</title>
<polygon fill="none" stroke="black" points="758.09,-41.45 758.09,-116.45 878.08,-116.45 878.08,-41.45 758.09,-41.45"/>
<text text-anchor="middle" x="818.09" y="-101.25" font-family="Times,serif" font-size="14.00">wsl2</text>
</g>
<!-- terminal -->
<g id="node1" class="node">
<title>terminal</title>
<ellipse fill="none" stroke="black" cx="66.05" cy="-69.45" rx="50.09" ry="18"/>
<text text-anchor="middle" x="66.05" y="-65.75" font-family="Times,serif" font-size="14.00">terminal</text>
</g>
<!-- w11_sshd -->
<g id="node2" class="node">
<title>w11_sshd</title>
<ellipse fill="none" stroke="black" cx="434.59" cy="-95.45" rx="55.79" ry="18"/>
<text text-anchor="middle" x="434.59" y="-91.75" font-family="Times,serif" font-size="14.00">w11_sshd</text>
</g>
<!-- terminal&#45;&gt;w11_sshd -->
<g id="edge1" class="edge">
<title>terminal&#45;&gt;w11_sshd</title>
<path fill="none" stroke="black" d="M115.72,-72.9C180.7,-77.51 295.97,-85.69 368.4,-90.82"/>
<polygon fill="black" stroke="black" points="367.91,-94.3 378.14,-91.51 368.41,-87.32 367.91,-94.3"/>
<text text-anchor="middle" x="233.09" y="-91.25" font-family="Times,serif" font-size="14.00">ssh Rcony@roly&#45;desktop&#45;23</text>
</g>
<!-- wsl_sshd -->
<g id="node3" class="node">
<title>wsl_sshd</title>
<ellipse fill="none" stroke="black" cx="818.09" cy="-67.45" rx="51.99" ry="18"/>
<text text-anchor="middle" x="818.09" y="-63.75" font-family="Times,serif" font-size="14.00">wsl_sshd</text>
</g>
<!-- terminal&#45;&gt;wsl_sshd -->
<g id="edge3" class="edge">
<title>terminal&#45;&gt;wsl_sshd</title>
<path fill="none" stroke="black" d="M106.47,-58.36C160.78,-43.71 261.92,-18.69 350.09,-9.45 526.66,9.06 575.69,-1.06 748.09,-43.45 755.79,-45.34 763.85,-47.74 771.62,-50.29"/>
<polygon fill="black" stroke="black" points="770.34,-53.55 780.94,-53.46 772.6,-46.92 770.34,-53.55"/>
<text text-anchor="middle" x="434.59" y="-28.25" font-family="Times,serif" font-size="14.00">ssh roly&#45;desktop&#45;23&#45;wsl</text>
<text text-anchor="middle" x="434.59" y="-13.25" font-family="Times,serif" font-size="14.00">(via ProxyJump)</text>
</g>
<!-- w11_sshd&#45;&gt;wsl_sshd -->
<g id="edge2" class="edge">
<title>w11_sshd&#45;&gt;wsl_sshd</title>
<path fill="none" stroke="black" d="M489.44,-91.5C559.53,-86.35 681.73,-77.38 755.45,-71.97"/>
<polygon fill="black" stroke="black" points="755.63,-75.47 765.34,-71.25 755.11,-68.49 755.63,-75.47"/>
<text text-anchor="middle" x="642.59" y="-91.25" font-family="Times,serif" font-size="14.00">ssh &#45;p 2022 roland@localhost</text>
</g>
</g>
</svg>
